<svg width="140" height="140" viewBox="0 0 140 140" fill="none" xmlns="http://www.w3.org/2000/svg">
<path d="M116.669 58.3334C116.669 93.3333 70.0026 128.333 70.0026 128.333C70.0026 128.333 23.3359 93.3333 23.3359 58.3334C23.3359 45.9566 28.2526 34.0867 37.0043 25.335C45.756 16.5833 57.6258 11.6667 70.0026 11.6667C82.3794 11.6667 94.2492 16.5833 103.001 25.335C111.753 34.0867 116.669 45.9566 116.669 58.3334Z" stroke="#B7E5E4" stroke-width="11.6667" stroke-linecap="round" stroke-linejoin="round"/>
<path d="M70.0039 75.8333C79.6689 75.8333 87.5039 67.9983 87.5039 58.3333C87.5039 48.6684 79.6689 40.8333 70.0039 40.8333C60.3389 40.8333 52.5039 48.6684 52.5039 58.3333C52.5039 67.9983 60.3389 75.8333 70.0039 75.8333Z" stroke="#B7E5E4" stroke-width="11.6667" stroke-linecap="round" stroke-linejoin="round"/>
</svg>
