<svg width="19" height="22" viewBox="0 0 19 22" fill="none" xmlns="http://www.w3.org/2000/svg">
<g id="Group">
<path id="Vector" d="M17.5 9C17.5 15 9.5 21 9.5 21C9.5 21 1.5 15 1.5 9C1.5 6.87827 2.34285 4.84344 3.84315 3.34315C5.34344 1.84285 7.37827 1 9.5 1C11.6217 1 13.6566 1.84285 15.1569 3.34315C16.6571 4.84344 17.5 6.87827 17.5 9Z" stroke="#828282" stroke-width="2" stroke-linecap="round" stroke-linejoin="round"/>
<path id="Vector_2" d="M9.5 12C11.1569 12 12.5 10.6569 12.5 9C12.5 7.34315 11.1569 6 9.5 6C7.84315 6 6.5 7.34315 6.5 9C6.5 10.6569 7.84315 12 9.5 12Z" stroke="#828282" stroke-width="2" stroke-linecap="round" stroke-linejoin="round"/>
</g>
</svg>
