<svg width="40" height="40" viewBox="0 0 40 40" fill="none" xmlns="http://www.w3.org/2000/svg">
<path d="M20.22 10H19.78C19.2496 10 18.7409 10.2107 18.3658 10.5858C17.9907 10.9609 17.78 11.4696 17.78 12V12.18C17.7796 12.5307 17.6871 12.8752 17.5115 13.1788C17.336 13.4825 17.0837 13.7346 16.78 13.91L16.35 14.16C16.046 14.3355 15.7011 14.4279 15.35 14.4279C14.9989 14.4279 14.654 14.3355 14.35 14.16L14.2 14.08C13.7411 13.8153 13.1958 13.7434 12.684 13.8803C12.1722 14.0172 11.7356 14.3515 11.47 14.81L11.25 15.19C10.9853 15.6489 10.9134 16.1942 11.0503 16.706C11.1872 17.2178 11.5215 17.6544 11.98 17.92L12.13 18.02C12.4323 18.1945 12.6836 18.4451 12.8591 18.7468C13.0345 19.0486 13.1279 19.391 13.13 19.74V20.25C13.1314 20.6024 13.0397 20.949 12.864 21.2545C12.6884 21.5601 12.4352 21.8138 12.13 21.99L11.98 22.08C11.5215 22.3456 11.1872 22.7822 11.0503 23.294C10.9134 23.8058 10.9853 24.3511 11.25 24.81L11.47 25.19C11.7356 25.6485 12.1722 25.9828 12.684 26.1197C13.1958 26.2566 13.7411 26.1847 14.2 25.92L14.35 25.84C14.654 25.6645 14.9989 25.5721 15.35 25.5721C15.7011 25.5721 16.046 25.6645 16.35 25.84L16.78 26.09C17.0837 26.2654 17.336 26.5175 17.5115 26.8212C17.6871 27.1248 17.7796 27.4693 17.78 27.82V28C17.78 28.5304 17.9907 29.0391 18.3658 29.4142C18.7409 29.7893 19.2496 30 19.78 30H20.22C20.7504 30 21.2591 29.7893 21.6342 29.4142C22.0093 29.0391 22.22 28.5304 22.22 28V27.82C22.2204 27.4693 22.3129 27.1248 22.4885 26.8212C22.664 26.5175 22.9163 26.2654 23.22 26.09L23.65 25.84C23.954 25.6645 24.2989 25.5721 24.65 25.5721C25.0011 25.5721 25.346 25.6645 25.65 25.84L25.8 25.92C26.2589 26.1847 26.8042 26.2566 27.316 26.1197C27.8278 25.9828 28.2645 25.6485 28.53 25.19L28.75 24.8C29.0147 24.3411 29.0866 23.7958 28.9497 23.284C28.8128 22.7722 28.4785 22.3356 28.02 22.07L27.87 21.99C27.5648 21.8138 27.3116 21.5601 27.136 21.2545C26.9604 20.949 26.8686 20.6024 26.87 20.25V19.75C26.8686 19.3976 26.9604 19.051 27.136 18.7455C27.3116 18.4399 27.5648 18.1862 27.87 18.01L28.02 17.92C28.4785 17.6544 28.8128 17.2178 28.9497 16.706C29.0866 16.1942 29.0147 15.6489 28.75 15.19L28.53 14.81C28.2645 14.3515 27.8278 14.0172 27.316 13.8803C26.8042 13.7434 26.2589 13.8153 25.8 14.08L25.65 14.16C25.346 14.3355 25.0011 14.4279 24.65 14.4279C24.2989 14.4279 23.954 14.3355 23.65 14.16L23.22 13.91C22.9163 13.7346 22.664 13.4825 22.4885 13.1788C22.3129 12.8752 22.2204 12.5307 22.22 12.18V12C22.22 11.4696 22.0093 10.9609 21.6342 10.5858C21.2591 10.2107 20.7504 10 20.22 10Z" stroke="#3E3E3E" stroke-width="2" stroke-linecap="round" stroke-linejoin="round"/>
<path d="M20 23C21.6569 23 23 21.6569 23 20C23 18.3431 21.6569 17 20 17C18.3431 17 17 18.3431 17 20C17 21.6569 18.3431 23 20 23Z" stroke="#3E3E3E" stroke-width="2" stroke-linecap="round" stroke-linejoin="round"/>
</svg>
