<svg width="40" height="40" viewBox="0 0 40 40" fill="none" xmlns="http://www.w3.org/2000/svg">
<g filter="url(#filter0_b_561_866)">
<path d="M33.3334 16.6668C33.3334 26.6668 20.0001 36.6668 20.0001 36.6668C20.0001 36.6668 6.66675 26.6668 6.66675 16.6668C6.66675 13.1306 8.07151 9.73922 10.572 7.23874C13.0725 4.73825 16.4639 3.3335 20.0001 3.3335C23.5363 3.3335 26.9277 4.73825 29.4282 7.23874C31.9287 9.73922 33.3334 13.1306 33.3334 16.6668Z" stroke="white" stroke-opacity="0.7" stroke-width="3.33333" stroke-linecap="round" stroke-linejoin="round"/>
<path d="M20 21.6665C22.7614 21.6665 25 19.4279 25 16.6665C25 13.9051 22.7614 11.6665 20 11.6665C17.2386 11.6665 15 13.9051 15 16.6665C15 19.4279 17.2386 21.6665 20 21.6665Z" stroke="white" stroke-opacity="0.7" stroke-width="3.33333" stroke-linecap="round" stroke-linejoin="round"/>
</g>
<defs>
<filter id="filter0_b_561_866" x="-8" y="-8" width="56" height="56" filterUnits="userSpaceOnUse" color-interpolation-filters="sRGB">
<feFlood flood-opacity="0" result="BackgroundImageFix"/>
<feGaussianBlur in="BackgroundImageFix" stdDeviation="4"/>
<feComposite in2="SourceAlpha" operator="in" result="effect1_backgroundBlur_561_866"/>
<feBlend mode="normal" in="SourceGraphic" in2="effect1_backgroundBlur_561_866" result="shape"/>
</filter>
</defs>
</svg>
