<svg width="54" height="54" viewBox="0 0 54 54" fill="none" xmlns="http://www.w3.org/2000/svg">
<g id="Group">
<path id="Vector" d="M27 35C31.4183 35 35 31.4183 35 27C35 22.5817 31.4183 19 27 19C22.5817 19 19 22.5817 19 27C19 31.4183 22.5817 35 27 35Z" stroke="#B1B1B1" stroke-width="5.33333" stroke-linecap="round" stroke-linejoin="round"/>
<path id="Vector_2" d="M3 13.6667V8.33333C3 6.91885 3.5619 5.56229 4.5621 4.5621C5.56229 3.5619 6.91885 3 8.33333 3H13.6667M40.3333 3H45.6667C47.0812 3 48.4377 3.5619 49.4379 4.5621C50.4381 5.56229 51 6.91885 51 8.33333V13.6667M51 40.3333V45.6667C51 47.0812 50.4381 48.4377 49.4379 49.4379C48.4377 50.4381 47.0812 51 45.6667 51H40.3333M13.6667 51H8.33333C6.91885 51 5.56229 50.4381 4.5621 49.4379C3.5619 48.4377 3 47.0812 3 45.6667V40.3333" stroke="#B1B1B1" stroke-width="5.33333" stroke-linecap="round" stroke-linejoin="round"/>
</g>
</svg>
