<svg width="63" height="113" viewBox="0 0 63 113" fill="none" xmlns="http://www.w3.org/2000/svg">
<path d="M8.00052 91.3671H13.2949M5.86719 14.0338L13.3339 6.03381L34.6672 28.9671C35.4372 29.7439 35.9499 30.7386 36.1356 31.8165C36.3213 32.8944 36.1711 34.0033 35.7054 34.993C35.2397 35.9826 34.4809 36.8052 33.532 37.3491C32.5831 37.893 31.4899 38.1321 30.4005 38.0338H29.3339L45.3339 55.6338C46.0647 56.3793 46.5608 57.3228 46.7605 58.3475C46.9602 59.3722 46.8547 60.433 46.4572 61.3983C46.0597 62.3637 45.3877 63.1911 44.5243 63.7781C43.661 64.3651 42.6444 64.6858 41.6005 64.7005H40.0005L56.0005 82.3005C56.7314 83.0459 57.2274 83.9895 57.4271 85.0142C57.6268 86.0389 57.5214 87.0997 57.1239 88.065C56.7264 89.0303 56.0543 89.8578 55.191 90.4448C54.3277 91.0318 53.3111 91.3525 52.2672 91.3671H13.2949M13.2949 91.3671V107.492" stroke="#B7E5E4" stroke-width="10.6667" stroke-linecap="round" stroke-linejoin="round"/>
</svg>
