<svg width="64" height="92" viewBox="0 0 64 92" fill="none" xmlns="http://www.w3.org/2000/svg">
<path d="M31.7433 53.9661V85.9661M47.7433 21.9661V23.0328C51.2411 24.3779 54.1557 26.908 55.979 30.182C57.8023 33.456 58.4185 37.2661 57.7202 40.9479C57.0219 44.6298 55.0535 47.9497 52.158 50.3287C49.2626 52.7078 45.624 53.9951 41.8767 53.9661H21.0767C17.3741 53.874 13.8182 52.5002 11.0154 50.0791C8.21259 47.658 6.33656 44.3395 5.70728 40.6896C5.07799 37.0397 5.73443 33.2846 7.56462 30.0647C9.39481 26.8447 12.2854 24.3595 15.7433 23.0328V21.9661C15.7433 17.7227 17.4291 13.653 20.4296 10.6524C23.4302 7.65184 27.4999 5.96613 31.7433 5.96613C35.9868 5.96613 40.0565 7.65184 43.0571 10.6524C46.0576 13.653 47.7433 17.7227 47.7433 21.9661Z" stroke="#B7E5E4" stroke-width="10.6667" stroke-linecap="round" stroke-linejoin="round"/>
</svg>
