<svg width="22" height="22" viewBox="0 0 22 22" fill="none" xmlns="http://www.w3.org/2000/svg">
<path d="M1 1L21 21M15.5 15.5L11 20L4 13C2.5 11.55 1 9.8 1 7.5C1.00067 6.65962 1.1939 5.83057 1.56487 5.0765C1.93584 4.32243 2.47467 3.6634 3.14 3.15M7.76 2.1C8.91 2.32 9.89 2.88 11 4C12.5 2.5 13.74 2 15.5 2C16.9587 2 18.3576 2.57946 19.3891 3.61091C20.4205 4.64236 21 6.04131 21 7.5C21 9.62 19.7 11.28 18.33 12.67" stroke="black" stroke-width="2" stroke-linecap="round" stroke-linejoin="round"/>
</svg>
