<svg xmlns="http://www.w3.org/2000/svg" width="105" height="128" viewBox="0 0 105 128" fill="none">
    <path d="M103.914 33.7267C104.289 34.1018 104.5 34.6105 104.5 35.1409V126C104.5 127.105 103.605 128 102.5 128H2.5C1.39543 128 0.5 127.105 0.5 126V2C0.5 0.895431 1.39543 0 2.5 0H69.3591C69.8895 0 70.3982 0.210714 70.7733 0.585786L103.914 33.7267ZM72.5 31C72.5 31.5523 72.9477 32 73.5 32H88.3983C89.2892 32 89.7354 30.9229 89.1054 30.2929L74.2071 15.3946C73.5771 14.7646 72.5 15.2108 72.5 16.1017V31ZM96.5 41C96.5 40.4477 96.0523 40 95.5 40H66.5C65.3954 40 64.5 39.1046 64.5 38V9C64.5 8.44771 64.0523 8 63.5 8H9.5C8.94771 8 8.5 8.44772 8.5 9V119C8.5 119.552 8.94772 120 9.5 120H95.5C96.0523 120 96.5 119.552 96.5 119V41ZM64.5 58C64.5 56.8954 65.3954 56 66.5 56H86.5C87.6046 56 88.5 56.8954 88.5 58V78C88.5 79.1046 87.6046 80 86.5 80H66.5C65.3954 80 64.5 79.1046 64.5 78V58ZM72.5 71C72.5 71.5523 72.9477 72 73.5 72H79.5C80.0523 72 80.5 71.5523 80.5 71V65C80.5 64.4477 80.0523 64 79.5 64H73.5C72.9477 64 72.5 64.4477 72.5 65V71ZM16.5 66C16.5 64.8954 17.3954 64 18.5 64H54.5C55.6046 64 56.5 64.8954 56.5 66V70C56.5 71.1046 55.6046 72 54.5 72H18.5C17.3954 72 16.5 71.1046 16.5 70V66ZM16.5 34C16.5 32.8954 17.3954 32 18.5 32H54.5C55.6046 32 56.5 32.8954 56.5 34V38C56.5 39.1046 55.6046 40 54.5 40H18.5C17.3954 40 16.5 39.1046 16.5 38V34ZM64.5 90C64.5 88.8954 65.3954 88 66.5 88H86.5C87.6046 88 88.5 88.8954 88.5 90V110C88.5 111.105 87.6046 112 86.5 112H66.5C65.3954 112 64.5 111.105 64.5 110V90ZM72.5 103C72.5 103.552 72.9477 104 73.5 104H79.5C80.0523 104 80.5 103.552 80.5 103V97C80.5 96.4477 80.0523 96 79.5 96H73.5C72.9477 96 72.5 96.4477 72.5 97V103ZM16.5 98C16.5 96.8954 17.3954 96 18.5 96H54.5C55.6046 96 56.5 96.8954 56.5 98V102C56.5 103.105 55.6046 104 54.5 104H18.5C17.3954 104 16.5 103.105 16.5 102V98Z" fill="#B7E5E4"/>
</svg>